<svg width="140" height="140" viewBox="0 0 140 140" fill="none" xmlns="http://www.w3.org/2000/svg">
<path d="M100.733 50.0365C101.233 50.5366 101.631 51.1305 101.901 51.7842C102.172 52.4378 102.312 53.1385 102.312 53.8461C102.312 54.5538 102.172 55.2544 101.901 55.9081C101.631 56.5618 101.233 57.1557 100.733 57.6558L63.0404 95.3481C62.5403 95.8487 61.9465 96.2459 61.2928 96.5168C60.6391 96.7878 59.9384 96.9273 59.2308 96.9273C58.5232 96.9273 57.8225 96.7878 57.1688 96.5168C56.5151 96.2459 55.9213 95.8487 55.4212 95.3481L39.2673 79.1942C38.257 78.1838 37.6893 76.8135 37.6893 75.3846C37.6893 73.9557 38.257 72.5854 39.2673 71.575C40.2777 70.5646 41.6481 69.997 43.0769 69.997C44.5058 69.997 45.8762 70.5646 46.8866 71.575L59.2308 83.9259L93.1135 50.0365C93.6136 49.5359 94.2074 49.1387 94.8611 48.8677C95.5148 48.5968 96.2155 48.4573 96.9231 48.4573C97.6307 48.4573 98.3314 48.5968 98.9851 48.8677C99.6388 49.1387 100.233 49.5359 100.733 50.0365ZM140 70C140 83.8447 135.895 97.3784 128.203 108.89C120.511 120.401 109.579 129.373 96.7878 134.672C83.997 139.97 69.9224 141.356 56.3437 138.655C42.765 135.954 30.2922 129.287 20.5026 119.497C10.7129 109.708 4.04603 97.235 1.34506 83.6563C-1.3559 70.0776 0.0303299 56.003 5.32846 43.2121C10.6266 30.4213 19.5987 19.4888 31.1101 11.7971C42.6215 4.10543 56.1553 0 70 0C88.5591 0.0195988 106.353 7.40087 119.476 20.5242C132.599 33.6475 139.98 51.4408 140 70ZM129.231 70C129.231 58.2852 125.757 46.8336 119.249 37.0931C112.74 27.3527 103.49 19.7609 92.6666 15.2779C81.8436 10.7949 69.9343 9.6219 58.4447 11.9073C46.955 14.1928 36.4011 19.8339 28.1175 28.1175C19.834 36.4011 14.1928 46.955 11.9074 58.4446C9.62193 69.9343 10.7949 81.8436 15.2779 92.6666C19.761 103.49 27.3527 112.74 37.0932 119.249C46.8336 125.757 58.2853 129.231 70 129.231C85.7035 129.213 100.759 122.967 111.863 111.863C122.967 100.759 129.213 85.7035 129.231 70Z" fill="#00FF80"/>
</svg>
