<svg width="140" height="140" viewBox="0 0 140 140" fill="none" xmlns="http://www.w3.org/2000/svg">
<path d="M70 0C56.1553 0 42.6215 4.10543 31.1101 11.7971C19.5987 19.4888 10.6266 30.4213 5.32846 43.2121C0.0303296 56.003 -1.3559 70.0776 1.34506 83.6563C4.04603 97.235 10.7129 109.708 20.5026 119.497C30.2922 129.287 42.765 135.954 56.3437 138.655C69.9224 141.356 83.997 139.97 96.7878 134.672C109.579 129.373 120.511 120.401 128.203 108.89C135.895 97.3785 140 83.8447 140 70C139.98 51.4409 132.599 33.6475 119.476 20.5242C106.353 7.40087 88.5591 0.0195988 70 0ZM70 129.231C58.2853 129.231 46.8336 125.757 37.0932 119.249C27.3527 112.74 19.761 103.49 15.2779 92.6666C10.7949 81.8436 9.62193 69.9343 11.9074 58.4446C14.1928 46.955 19.834 36.4011 28.1175 28.1175C36.4011 19.8339 46.955 14.1928 58.4447 11.9073C69.9343 9.6219 81.8436 10.7949 92.6666 15.2779C103.49 19.7609 112.74 27.3527 119.249 37.0931C125.757 46.8336 129.231 58.2852 129.231 70C129.213 85.7035 122.967 100.759 111.863 111.863C100.759 122.967 85.7035 129.213 70 129.231ZM64.6154 75.3846V37.6923C64.6154 36.2642 65.1827 34.8946 66.1925 33.8848C67.2023 32.875 68.5719 32.3077 70 32.3077C71.4281 32.3077 72.7977 32.875 73.8075 33.8848C74.8173 34.8946 75.3846 36.2642 75.3846 37.6923V75.3846C75.3846 76.8127 74.8173 78.1823 73.8075 79.1921C72.7977 80.2019 71.4281 80.7692 70 80.7692C68.5719 80.7692 67.2023 80.2019 66.1925 79.1921C65.1827 78.1823 64.6154 76.8127 64.6154 75.3846ZM78.0769 99.6154C78.0769 101.213 77.6032 102.774 76.7157 104.103C75.8282 105.431 74.5668 106.466 73.0909 107.077C71.615 107.689 69.9911 107.849 68.4243 107.537C66.8575 107.225 65.4183 106.456 64.2888 105.327C63.1592 104.197 62.3899 102.758 62.0783 101.191C61.7666 99.6243 61.9266 98.0003 62.5379 96.5245C63.1492 95.0486 64.1845 93.7872 65.5127 92.8997C66.841 92.0122 68.4025 91.5384 70 91.5384C72.1421 91.5384 74.1965 92.3894 75.7113 93.9041C77.226 95.4188 78.0769 97.4732 78.0769 99.6154Z" fill="#B40707"/>
</svg>
